<?xml version="1.0" standalone="no"?>
<!DOCTYPE svg PUBLIC "-//W3C//DTD SVG 20010904//EN"
 "http://www.w3.org/TR/2001/REC-SVG-20010904/DTD/svg10.dtd">
<svg version="1.0" xmlns="http://www.w3.org/2000/svg"
 width="500.000000pt" height="500.000000pt" viewBox="0 0 500.000000 500.000000"
 preserveAspectRatio="xMidYMid meet">
<metadata>
Created by potrace 1.10, written by Peter Selinger 2001-2011
</metadata>
<g transform="translate(0.000000,500.000000) scale(0.100000,-0.100000)"
fill="#000000" stroke="none">
<path d="M2404 3919 c-20 -6 -69 -50 -145 -131 -332 -356 -427 -425 -999 -720
-203 -106 -235 -125 -273 -167 -41 -45 -58 -109 -59 -221 -1 -86 12 -104 85
-120 40 -8 63 -21 97 -54 52 -51 107 -72 212 -82 126 -11 293 28 409 97 46 27
58 29 147 29 84 0 105 4 152 26 87 42 168 43 276 6 76 -25 115 -32 266 -42
243 -16 407 0 528 52 25 11 85 31 135 44 144 40 230 108 286 228 33 71 53 183
40 218 -11 30 -37 52 -83 71 -45 19 -73 69 -81 145 -8 70 -65 186 -122 250
-96 107 -286 211 -505 277 -85 26 -185 60 -222 76 -69 30 -92 33 -144 18z
m113 -41 l28 -11 -41 -7 c-44 -6 -94 -34 -94 -50 0 -6 12 -3 26 7 38 24 145
26 214 3 30 -10 65 -19 78 -19 30 -1 28 -12 -8 -37 l-31 -21 -46 23 c-55 28
-68 29 -108 8 -42 -22 -84 -20 -128 6 -37 22 -38 22 -64 4 -62 -45 -93 -64
-93 -59 0 4 35 42 78 86 73 73 81 79 120 79 22 0 53 -5 69 -12z m-43 -158 c15
0 40 7 57 15 32 17 49 13 49 -11 0 -18 50 -118 55 -112 3 2 -4 26 -14 54 -10
27 -22 59 -26 72 l-7 23 51 -25 c28 -14 57 -26 66 -26 8 0 32 -10 53 -23 20
-13 84 -43 142 -67 122 -52 155 -78 145 -118 -15 -62 -89 -98 -183 -89 -82 7
-138 39 -185 106 -9 14 -19 22 -23 19 -8 -9 36 -73 67 -96 39 -30 115 -55 149
-49 37 8 39 0 4 -14 -21 -7 -42 -5 -88 10 -34 10 -83 24 -110 31 -60 14 -286
14 -300 0 -7 -7 27 -10 105 -9 107 0 242 -20 319 -49 22 -8 20 -10 -30 -27
-45 -15 -73 -17 -179 -11 -142 7 -150 8 -217 31 -43 14 -59 15 -127 4 -43 -6
-105 -9 -138 -6 -32 3 -59 1 -59 -3 0 -14 117 -22 208 -15 71 5 94 3 127 -11
28 -12 79 -18 165 -22 l125 -5 -102 -32 c-56 -18 -125 -47 -152 -64 -65 -42
-174 -81 -230 -81 -23 0 -81 12 -127 26 -87 27 -191 31 -215 7 -7 -7 10 -9 58
-6 55 4 82 1 143 -20 41 -14 84 -27 95 -29 30 -5 -151 -54 -306 -82 -128 -24
-142 -25 -240 -13 -58 7 -110 16 -117 21 -7 4 -12 3 -12 -3 0 -15 60 -31 118
-32 52 -2 87 -19 37 -19 -14 0 -48 -9 -74 -20 -55 -24 -86 -18 -126 26 -55 59
-25 95 151 182 67 33 148 78 180 100 62 42 115 92 97 92 -6 0 -17 -8 -24 -17
-23 -28 -138 -98 -276 -167 -132 -67 -183 -105 -183 -135 0 -9 -16 -26 -36
-39 -43 -28 -39 -40 7 -17 32 17 32 17 57 -15 13 -17 36 -36 50 -41 l26 -10
-29 -15 c-16 -8 -48 -30 -71 -49 -52 -43 -82 -44 -119 -5 -39 41 -85 54 -167
47 -37 -3 -68 -3 -68 1 0 10 41 33 220 127 356 187 469 250 538 296 40 28 76
48 81 45 4 -3 32 19 61 49 52 52 54 53 80 40 31 -16 51 -20 167 -36 46 -6 88
-9 95 -6 19 7 -1 12 -117 30 -56 9 -113 21 -128 26 l-27 11 94 85 c53 47 104
97 115 111 17 22 23 24 41 14 12 -7 56 -14 98 -16 90 -5 72 9 -25 21 -35 4
-63 11 -63 15 0 13 83 23 120 15 21 -5 30 -4 26 3 -3 6 -20 13 -37 17 -28 6
-29 8 -12 20 15 11 24 10 59 -11 22 -13 53 -24 68 -24z m352 16 c25 -19 75
-45 110 -56 79 -26 110 -53 119 -100 5 -28 4 -31 -5 -17 -12 18 -84 58 -186
100 -34 15 -78 36 -98 48 l-36 21 23 19 c12 10 23 18 25 19 2 0 23 -15 48 -34z
m123 -12 c41 -19 71 -37 68 -41 -9 -9 -136 43 -167 68 l-25 20 25 -7 c14 -3
58 -22 99 -40z m162 -89 l58 -36 -15 -41 c-17 -49 -37 -73 -76 -92 -25 -13
-41 -5 -19 9 13 8 25 89 17 120 -4 14 -15 33 -26 43 -11 9 -20 20 -20 24 0 15
23 8 81 -27z m134 -134 c-10 -33 -62 -67 -154 -100 -68 -25 -87 -28 -104 -19
-21 11 -20 12 13 26 124 54 141 64 160 102 11 22 20 49 20 62 0 21 2 20 36
-13 28 -28 35 -42 29 -58z m36 -95 c-17 -18 -31 -41 -31 -52 0 -28 57 -99 97
-121 36 -19 50 -47 35 -66 -5 -7 -15 -39 -22 -72 -17 -80 -57 -120 -132 -130
-44 -6 -59 -14 -88 -45 -46 -49 -65 -58 -141 -66 -61 -6 -358 12 -369 22 -13
13 38 81 75 99 51 26 49 24 43 30 -8 9 -72 -17 -95 -38 -13 -11 -28 -35 -35
-53 -14 -39 -23 -39 -133 11 -38 18 -94 40 -124 50 l-55 18 35 17 c36 19 162
62 289 100 41 12 109 42 151 66 42 24 80 44 85 44 5 0 35 16 67 35 37 22 71
35 93 35 19 0 51 7 71 15 57 24 91 19 124 -17 17 -17 28 -38 27 -47 -2 -9 -27
-30 -55 -47 -44 -26 -131 -119 -121 -129 2 -2 26 17 53 42 28 25 67 54 88 64
21 11 40 26 44 34 9 25 22 17 45 -29 36 -74 3 -136 -72 -136 -46 0 -105 -22
-135 -50 -29 -27 -88 -50 -132 -51 -34 0 -35 -1 -15 -10 35 -14 98 5 159 47
45 31 66 39 109 41 30 1 63 7 75 13 23 13 49 67 49 101 0 31 -59 137 -101 181
-32 34 -41 38 -90 39 -30 1 -58 2 -64 4 -5 1 -19 3 -30 4 -11 1 10 10 46 19
69 18 128 55 156 98 l16 25 19 -32 19 -32 -30 -31z m63 -36 c21 -53 36 -120
26 -120 -4 0 -28 23 -54 50 l-47 50 23 30 c13 16 26 29 29 29 4 1 14 -17 23
-39z m-370 -5 c17 -17 36 -25 61 -25 19 0 35 -5 35 -11 0 -8 -22 -10 -67 -7
-93 6 -131 -4 -242 -66 -53 -30 -139 -67 -191 -84 -127 -40 -209 -72 -300
-115 -55 -26 -108 -42 -199 -57 -68 -11 -125 -19 -128 -17 -6 6 61 32 256 98
95 33 201 75 235 93 33 19 122 55 196 81 74 27 176 67 225 91 50 23 91 43 92
43 1 1 13 -10 27 -24z m-24 -70 c0 -2 -24 -16 -52 -31 -29 -14 -92 -48 -139
-75 -58 -34 -115 -57 -180 -73 -117 -30 -167 -48 -237 -86 -55 -30 -82 -36
-95 -23 -11 10 154 80 301 129 73 24 172 65 219 91 107 58 183 86 183 68z
m507 -169 c46 -14 73 -46 73 -86 0 -77 -58 -218 -109 -264 -20 -18 -22 -18
-59 -2 -22 10 -57 35 -79 57 -22 21 -59 47 -83 58 l-42 19 23 16 c13 9 34 16
47 16 28 0 98 35 105 52 4 9 6 9 6 -2 1 -32 -47 -69 -91 -71 l-23 0 23 -10
c50 -19 114 30 126 96 25 149 28 157 45 142 9 -8 26 -18 38 -21z m-1544 -137
c-23 -12 -57 -40 -75 -64 -18 -24 -53 -54 -78 -67 -26 -13 -56 -40 -73 -65
-38 -57 -73 -65 -253 -61 -79 2 -144 5 -144 8 1 10 153 123 203 151 65 36 184
75 257 83 30 4 80 13 110 20 81 20 102 18 53 -5z m249 -26 c-11 -16 -27 -52
-35 -81 -18 -60 -17 -52 -17 -97 0 -55 -33 -81 -111 -90 -72 -8 -103 -21 -138
-59 -36 -38 -40 -32 -20 27 10 28 25 95 34 147 9 52 19 104 21 116 3 20 15 23
224 51 19 3 37 7 39 9 2 2 8 4 13 4 5 0 1 -12 -10 -27z m122 6 c38 -9 44 -15
49 -43 6 -41 35 -111 43 -104 3 3 -2 31 -11 63 -9 31 -15 58 -13 59 1 2 57
-19 123 -45 67 -26 138 -49 159 -51 21 -1 40 -7 41 -13 2 -5 11 -48 21 -95 9
-47 21 -92 25 -100 14 -25 10 37 -6 110 -8 36 -14 70 -15 75 0 7 60 9 175 7
111 -3 186 0 206 7 43 15 89 -8 124 -61 l27 -40 -34 7 c-39 9 -86 31 -112 54
-17 15 -18 15 -15 -3 5 -24 97 -76 141 -80 76 -7 76 -29 1 -46 -32 -7 -81 -23
-110 -35 -103 -46 -194 -60 -386 -60 l-178 0 -20 25 c-20 27 -41 89 -59 183
-6 31 -15 55 -19 52 -14 -8 28 -198 50 -229 l22 -29 -57 7 c-31 3 -91 19 -134
34 -111 39 -201 37 -299 -6 -54 -25 -86 -32 -132 -32 -34 0 -63 5 -67 12 -5 7
-3 8 5 3 8 -4 34 8 67 30 39 27 64 37 91 37 54 0 119 31 136 65 8 15 18 52 21
81 3 29 15 74 27 100 l21 47 14 -33 c8 -18 17 -77 20 -130 10 -187 27 -194 25
-10 -2 102 -5 129 -22 156 -10 18 -19 35 -19 38 0 7 29 5 74 -7z m-429 -96
c-4 -16 -9 -39 -11 -53 -10 -60 -14 -68 -41 -73 -16 -3 -67 -41 -117 -86 l-88
-81 -113 0 -114 0 -46 -40 c-52 -45 -41 -55 14 -13 30 24 48 28 123 33 48 3
88 3 88 0 0 -3 -42 -27 -94 -54 -91 -48 -96 -49 -156 -43 -92 10 -207 67 -135
67 31 0 51 10 211 101 110 63 127 70 188 74 81 6 121 25 148 71 13 22 38 43
65 56 24 11 51 31 60 44 20 32 27 30 18 -3z m1326 7 c5 0 36 -24 68 -54 33
-30 73 -62 90 -71 17 -8 31 -18 31 -20 0 -3 -11 -12 -25 -21 -23 -15 -27 -15
-50 0 -13 9 -43 40 -65 70 -23 30 -54 59 -70 66 -17 7 -30 16 -30 20 0 13 14
21 28 15 7 -3 18 -5 23 -5z m-2004 -31 c15 -5 39 -21 53 -34 14 -13 36 -25 50
-27 l25 -3 -31 -22 -31 -22 -35 25 c-30 21 -49 26 -106 27 -53 2 -75 7 -91 21
-12 11 -21 23 -21 27 0 17 147 24 187 8z m-175 -56 c14 -12 42 -19 91 -21 68
-4 127 -28 127 -51 0 -14 -74 -41 -145 -51 -38 -6 -77 -18 -86 -26 -20 -18
-25 -18 -27 4 -2 34 10 162 16 162 3 0 14 -8 24 -17z m805 -130 c-20 -59 -27
-70 -72 -99 -47 -31 -246 -104 -283 -104 -9 0 31 28 91 61 71 40 134 85 187
135 44 41 84 74 89 74 5 0 -1 -30 -12 -67z m-435 47 l100 0 -135 -70 c-160
-82 -210 -97 -239 -70 -19 17 -18 18 25 39 24 12 78 28 118 37 93 19 109 24
109 33 0 10 -198 -32 -230 -48 -14 -8 -33 -20 -42 -28 -18 -16 -82 -11 -93 8
-9 13 51 37 111 44 54 7 127 36 139 55 4 6 14 9 22 6 8 -3 60 -6 115 -6z"/>
<path d="M1230 2143 c-9 -2 -30 -47 -53 -113 -40 -115 -42 -119 -29 -121 4 -1
14 17 22 40 14 39 16 41 56 41 34 0 43 -4 52 -25 7 -14 12 -32 12 -40 0 -8 9
-15 20 -15 11 0 20 1 20 3 0 5 -81 232 -83 232 -1 1 -9 0 -17 -2z m13 -70 c3
-16 9 -36 12 -45 6 -15 1 -18 -28 -18 l-35 0 16 49 c18 53 26 56 35 14z"/>
<path d="M1599 2143 c-9 -2 -23 -28 -33 -61 -10 -31 -27 -79 -37 -107 l-19
-50 -55 3 -55 4 0 104 c0 97 -1 104 -20 104 -19 0 -20 -7 -20 -114 l0 -115 84
-3 85 -3 12 43 c11 41 13 42 54 42 35 0 44 -4 53 -25 7 -14 12 -32 12 -40 0
-8 9 -15 20 -15 11 0 20 3 20 8 0 7 -80 226 -83 227 -1 1 -9 0 -18 -2z m14
-70 c3 -16 9 -36 12 -45 6 -15 1 -18 -27 -18 l-35 0 16 49 c17 53 25 56 34 14z"/>
<path d="M920 2025 c0 -103 2 -115 18 -115 14 0 17 8 14 55 l-4 55 61 0 61 0
0 -55 c0 -46 3 -55 18 -55 15 0 17 11 14 115 -3 100 -5 115 -20 115 -14 0 -16
-9 -14 -55 l4 -55 -62 0 -62 0 4 55 c3 47 0 55 -14 55 -16 0 -18 -12 -18 -115z"/>
<path d="M1740 2025 l0 -115 70 0 c40 0 70 4 70 10 0 6 -25 10 -56 10 l-55 0
3 105 c3 95 1 105 -14 105 -16 0 -18 -12 -18 -115z"/>
<path d="M1900 2025 c0 -108 1 -115 20 -115 19 0 20 7 20 115 0 108 -1 115
-20 115 -19 0 -20 -7 -20 -115z"/>
<path d="M2070 2018 c0 -145 18 -153 22 -10 2 51 5 92 8 92 3 0 11 -18 17 -39
21 -67 61 -151 72 -151 11 0 67 114 77 157 4 13 11 26 16 29 6 4 9 -28 7 -90
-4 -86 -2 -96 14 -96 15 0 17 12 17 115 0 105 -2 115 -19 115 -17 0 -55 -69
-91 -164 -11 -30 -11 -30 -46 50 -20 43 -38 87 -41 97 -3 10 -15 17 -29 17
-24 0 -24 0 -24 -122z"/>
<path d="M2360 2025 l0 -115 75 0 c43 0 75 4 75 10 0 6 -25 10 -55 10 l-55 0
0 46 0 47 50 -5 c35 -4 50 -2 47 6 -2 7 -22 10 -50 8 l-47 -4 0 46 0 46 50 0
c28 0 50 5 50 10 0 6 -30 10 -70 10 l-70 0 0 -115z"/>
<path d="M2606 2098 c-9 -24 -27 -74 -41 -112 -14 -37 -25 -73 -25 -79 0 -19
24 12 36 46 10 29 15 32 56 35 44 3 45 3 57 -38 9 -30 17 -40 32 -40 16 0 19
4 14 18 -14 34 -67 177 -72 195 -10 33 -40 19 -57 -25z m31 -86 c-16 -2 -31
-2 -33 1 -2 2 4 26 13 53 l16 49 16 -50 16 -50 -28 -3z"/>
<path d="M2720 2130 c0 -5 17 -10 38 -10 l37 0 -3 -105 c-4 -101 -3 -105 17
-105 20 0 21 5 21 105 l0 105 34 0 c19 0 38 5 41 10 4 6 -28 10 -89 10 -57 0
-96 -4 -96 -10z"/>
<path d="M3020 2025 l0 -115 70 0 c40 0 70 4 70 10 0 6 -24 10 -52 10 l-53 0
3 105 c4 101 3 105 -17 105 -20 0 -21 -5 -21 -115z"/>
<path d="M3130 2130 c0 -5 18 -10 40 -10 l40 0 0 -105 c0 -87 3 -105 15 -105
12 0 15 18 15 105 l0 105 35 0 c19 0 35 5 35 10 0 6 -37 10 -90 10 -53 0 -90
-4 -90 -10z"/>
<path d="M3340 2025 l0 -115 51 0 c86 0 129 37 134 115 5 72 -43 115 -127 115
l-58 0 0 -115z m129 69 c49 -62 12 -164 -59 -164 l-30 0 0 95 0 95 34 0 c25 0
40 -7 55 -26z"/>
<path d="M3557 1944 c-14 -14 -7 -35 11 -32 9 2 17 10 17 17 0 16 -18 25 -28
15z"/>
</g>
</svg>
